<svg viewBox="0 0 400 250" xmlns="http://www.w3.org/2000/svg">
  <!-- Background -->
  <defs>
    <linearGradient id="bg-gradient" x1="0%" y1="0%" x2="100%" y2="100%">
      <stop offset="0%" stop-color="#0f2027" />
      <stop offset="50%" stop-color="#203a43" />
      <stop offset="100%" stop-color="#2c5364" />
    </linearGradient>
    
    <!-- Shadow filter for the hexagon -->
    <filter id="hexagon-shadow" x="-20%" y="-20%" width="140%" height="140%">
      <feGaussianBlur in="SourceAlpha" stdDeviation="5" />
      <feOffset dx="0" dy="3" result="offsetblur" />
      <feComponentTransfer>
        <feFuncA type="linear" slope="0.5" />
      </feComponentTransfer>
      <feMerge>
        <feMergeNode />
        <feMergeNode in="SourceGraphic" />
      </feMerge>
    </filter>
    
    <!-- Glow filter for the border -->
    <filter id="border-glow">
      <feGaussianBlur in="SourceAlpha" stdDeviation="2" />
      <feOffset dx="0" dy="0" result="offsetblur" />
      <feFlood flood-color="#4fc3f7" flood-opacity="0.8" />
      <feComposite in2="offsetblur" operator="in" />
      <feMerge>
        <feMergeNode />
        <feMergeNode in="SourceGraphic" />
      </feMerge>
    </filter>
  </defs>
  
  <!-- Main hexagon shape with shadow -->
  <polygon points="200,40 320,95 320,205 200,260 80,205 80,95" fill="url(#bg-gradient)" stroke="#4fc3f7" stroke-width="2" filter="url(#hexagon-shadow)" />
  
  <!-- Border glow effect -->
  <polygon points="200,40 320,95 320,205 200,260 80,205 80,95" fill="none" stroke="#4fc3f7" stroke-width="1.5" filter="url(#border-glow)" />
  
  <!-- Connecting lines -->
  <path d="M120,120 L280,120 M120,180 L280,180 M160,90 L160,210 M240,90 L240,210" stroke="#4fc3f7" stroke-width="1.5" stroke-opacity="0.3" />
  
  <!-- Text -->
  <text x="200" y="155" font-family="'Courier New', monospace" font-size="36" font-weight="bold" text-anchor="middle" fill="#ffffff">NATOCHI</text>
  
  <!-- Decorative code-like elements -->
  <text x="140" y="90" font-family="monospace" font-size="10" fill="#64ffda">&lt;/&gt;</text>
  <text x="260" y="90" font-family="monospace" font-size="10" fill="#64ffda">{}</text>
  <text x="140" y="210" font-family="monospace" font-size="10" fill="#64ffda">[]</text>
  <text x="260" y="210" font-family="monospace" font-size="10" fill="#64ffda">( )</text>
  
  <!-- Small nodes -->
  <circle cx="120" cy="120" r="4" fill="#ffeb3b" />
  <circle cx="280" cy="120" r="4" fill="#ffeb3b" />
  <circle cx="120" cy="180" r="4" fill="#ffeb3b" />
  <circle cx="280" cy="180" r="4" fill="#ffeb3b" />
  <circle cx="160" cy="90" r="4" fill="#ffeb3b" />
  <circle cx="240" cy="90" r="4" fill="#ffeb3b" />
  <circle cx="160" cy="210" r="4" fill="#ffeb3b" />
  <circle cx="240" cy="210" r="4" fill="#ffeb3b" />
</svg>